# xmcd
#
# Track frame offsets: 
#        150
#        11400
#        22973
#        30173
#        43373
#        58823
#        72773
#
# Disc length: 1092 seconds
#
# Revision: 0
# Processed by: cddbd v1.5.2PL0 Copyright (c) Steve Scherf et al.
# Submitted via: ExactAudioCopy v0.95a5
#
DISCID=50044207
DTITLE=Zoe Boekbinder - Shoestrings
DYEAR=2007
DGENRE=Blues
TTITLE0=Billie Blue
TTITLE1=Typewriter Girl
TTITLE2=December
TTITLE3=Little Johnny
TTITLE4=Stitches
TTITLE5=Get Gone
TTITLE6=Don't Tell me
EXTD=
EXTT0=
EXTT1=
EXTT2=
EXTT3=
EXTT4=
EXTT5=
EXTT6=
PLAYORDER=
